# xmcd
#
# Track frame offsets:
#	150
#	5799
#	22015
#	39232
#	53111
#	67365
#	83119
#	101720
#	119947
#	135927
#	150332
#	161663
#	175243
#	190321
#	206677
#	226632
#	240437
#	259642
#	276897
#	296403
#	312159
#
# Disc length: 4420 seconds
#
# Revision: 1
# Processed by: cddbd v1.5.1PL0 Copyright (c) Steve Scherf et al.
# Submitted via: EasyCDDAExtractor 6.5.0.1
#
DISCID=24114215
DTITLE=Os Paralamas do Sucesso - Acústico
DYEAR=1999
DGENRE=MPB
TTITLE0=Vulcão dub (instrumental)
TTITLE1=O trem da juventude
TTITLE2=Manguetown
TTITLE3=Um amor, um lugar
TTITLE4=Bora Bora
TTITLE5=Vai valer
TTITLE6=I feel you (i got you)-Sossego
TTITLE7=Uns dias
TTITLE8=Sincero breu
TTITLE9=meu erro
TTITLE10=Selvagem
TTITLE11=Brasilia
TTITLE12=Tendo a lua
TTITLE13=Que pais e este
TTITLE14=Navegar impresiso
TTITLE15=Feira moderna
TTITLE16=Tequila-Loirinha bom bril (parate y mira)
TTITLE17=Vamo Bate lata
TTITLE18=Life during wartime
TTITLE19=Nebulosa de amor
TTITLE20=Caleidoscopio
EXTD=
EXTT0=
EXTT1=
EXTT2=
EXTT3=
EXTT4=
EXTT5=
EXTT6=
EXTT7=
EXTT8=
EXTT9=
EXTT10=
EXTT11=
EXTT12=
EXTT13=
EXTT14=
EXTT15=
EXTT16=
EXTT17=
EXTT18=
EXTT19=
EXTT20=
PLAYORDER=
